<?xml version="1.0" encoding="utf-8"?>
<!-- Generator: Adobe Illustrator 21.1.0, SVG Export Plug-In . SVG Version: 6.00 Build 0)  -->
<svg version="1.1" id="Layer_1" xmlns="http://www.w3.org/2000/svg" xmlns:xlink="http://www.w3.org/1999/xlink" x="0px" y="0px"
	 viewBox="0 0 64 64" style="enable-background:new 0 0 64 64;" xml:space="preserve">
<style type="text/css">
	.st0{fill:#FF6C58;}
	.st1{fill:#0C907D;}
	.st2{fill:#D7385E;}
	.st3{fill-rule:evenodd;clip-rule:evenodd;fill:#314A52;}
	.st4{fill:#FFFFFF;}
	.st5{fill:#ACBDC5;}
	.st6{fill-rule:evenodd;clip-rule:evenodd;fill:#A79E8B;}
</style>
<g id="Apple__x26__Book">
	<polygon class="st0" points="16,12 48,11.5 49,33 15,33 	"/>
	<path class="st1" d="M34,6c0-3.3,2.7-6,6-6h8v2c0,3.3-2.7,6-6,6h-8V6z"/>
	<path class="st2" d="M30.8,13.6C30.3,13.2,28.1,12,24,12c-2.2,0-4.1,0.9-5.6,2.5C17,16.1,16,18.6,16,22c0,2,0.2,4.1,0.7,6.2
		c0.7,1.9,4.6,3.5,9.7,3.8c0.5,0,1,0,1.6,0c11,0,20-5.1,20-11.5l2.5-0.5l-6,21L32,43c-1.5,0-2.3,0.2-3.2,0.4l-0.1,0
		c-0.9,0.2-2,0.5-3.7,0.5c-4.5,0-7.7-3.7-9.7-7.7C13.2,32.1,12,26.8,12,22c0-4.1,1.2-7.6,3.4-10.1C17.6,9.4,20.7,8,24,8
		c4.7,0,8,1.4,9.2,2.4L30.8,13.6z"/>
	<path class="st3" d="M28.3,0.9c0.6-0.9,1.9-1.2,2.8-0.6c1.2,0.8,2.5,2.6,3.3,4.7C34.8,6.1,35,7.3,35,8.6C36.4,8.2,38.1,8,40,8
		c3.3,0,6.3,1.2,8.5,3.7c2.2,2.5,3.5,6,3.5,10.3c0,4.8-1.2,10.1-3.3,14.3c-2,4-5.3,7.7-9.7,7.7c-1.7,0-2.8-0.3-3.7-0.5
		c0,0-0.1,0-0.1,0C34.3,43.2,33.5,43,32,43v-4c2,0,3.2,0.3,4.2,0.6c0,0,0.1,0,0.1,0c0.9,0.2,1.5,0.4,2.7,0.4c2,0,4.3-1.8,6.1-5.5
		C46.9,30.9,48,26.2,48,22c0-3.6-1-6.1-2.4-7.7C44.2,12.8,42.2,12,40,12c-4.1,0-6.3,1.2-6.8,1.6c-0.7,0.6-1.8,0.6-2.5,0
		c-0.7-0.6-0.9-1.7-0.5-2.5c0.9-1.6,0.8-3.3,0.4-4.7c-0.5-1.5-1.4-2.5-1.7-2.7C28,3.1,27.7,1.8,28.3,0.9z"/>
	<rect x="11" y="47" class="st4" width="42" height="10"/>
	<path class="st5" d="M8,47v14h49V47h-5.2c0.1,0.3,0.2,0.7,0.2,1c0,4.4-11.6,8-26,8c-7.7,0-14-1.8-14-4v-5H8z"/>
	<path class="st6" d="M4,46c0-1.1,0.9-2,2-2h48c3,0,6,3.2,6,10c0,6.8-3,10-6,10H6c-1.1,0-2-0.9-2-2c0-1.1,0.9-2,2-2h48c0,0,0,0,0,0
		c0,0,2-0.4,2-6c0-5.6-2-6-2-6c0,0,0,0,0,0H6C4.9,48,4,47.1,4,46z"/>
</g>
</svg>
