<?xml version="1.0" encoding="utf-8"?>
<!-- Generator: Adobe Illustrator 21.1.0, SVG Export Plug-In . SVG Version: 6.00 Build 0)  -->
<svg version="1.1" id="Layer_1" xmlns="http://www.w3.org/2000/svg" xmlns:xlink="http://www.w3.org/1999/xlink" x="0px" y="0px"
	 viewBox="0 0 64 64" style="enable-background:new 0 0 64 64;" xml:space="preserve">
<style type="text/css">
	.st0{fill:#0779E4;}
	.st1{fill:#57CEF3;}
	.st2{fill-rule:evenodd;clip-rule:evenodd;fill:#ACBDC5;}
	.st3{fill-rule:evenodd;clip-rule:evenodd;fill:#314A52;}
	.st4{fill:#FF6C58;}
</style>
<g id="Atom">
	<circle class="st0" cx="32" cy="32" r="8"/>
	<path class="st1" d="M36,32c0,1.5-1.8,2-4,2c-2.2,0-4-0.5-4-2c0-2.2,1.8-4,4-4C34.2,28,36,29.8,36,32z"/>
	<path class="st2" d="M16,29.7c-1.1,1.2-2.2,2.3-3.1,3.5c-2.3,3-3.9,5.8-4.5,8.3C7.7,44,8,45.8,8.8,47.2c0.8,1.2,2.1,2.1,4.2,2.5
		c1.6,0.3,3.5,0.4,5.6,0.2C17,44.8,16,38.6,16,32C16,31.2,16,30.5,16,29.7z M11.5,28.8c1.5-1.7,3.2-3.3,5-5c0.4-3.5,1.2-6.7,2.1-9.7
		c-2.2-0.2-4-0.2-5.6,0.2c-2.1,0.4-3.5,1.3-4.2,2.5C8,18.2,7.7,20,8.4,22.5C8.9,24.4,9.9,26.5,11.5,28.8z M12.2,10.4
		c2.8-0.6,6.1-0.5,9.5,0.2c3.2,0.6,6.7,1.8,10.3,3.3c3.6-1.6,7-2.7,10.3-3.3l0.8,3.9c-2,0.4-4.1,1-6.3,1.8c3.6,2,7,4.4,10.1,7
		c2.8,2.4,5.3,4.9,7.3,7.5l-3.1,2.5c-1.8-2.3-4.1-4.6-6.8-6.9c-4-3.4-8.4-6.2-13.2-8.4c-3-1.4-5.9-2.4-8.5-3.1
		c-1,3-1.8,6.4-2.2,10.2C20.1,27.3,20,29.6,20,32c0,6.5,1,12.4,2.6,17.1c2.7-0.7,5.6-1.7,8.5-3.1c4.7-2.2,9.2-5.1,13.2-8.4l2.6,3.1
		c-4.3,3.6-9,6.6-14,9c-3,1.4-5.9,2.5-8.7,3.2c1,2,2.1,3.7,3.3,4.9C29,59.3,30.6,60,32,60c2.1,0,4.5-1.5,6.7-5.1l3.4,2.1
		c-2.5,4-5.9,6.9-10.1,6.9c-2.8,0-5.3-1.4-7.4-3.4c-1.7-1.8-3.3-4.1-4.5-6.9c-2.9,0.4-5.6,0.4-7.9-0.1c-2.8-0.6-5.2-2-6.7-4.3
		c-1.7-2.6-1.8-5.7-0.9-8.9c0.7-2.7,2.3-5.6,4.3-8.5c-2.1-2.8-3.6-5.7-4.3-8.5c-0.9-3.1-0.8-6.3,0.9-8.9C6.9,12.3,9.4,11,12.2,10.4z
		"/>
	<path class="st3" d="M51.1,30.8c-0.9,1.2-2,2.3-3.1,3.5c0-0.7,0-1.5,0-2.3c0-2.5-0.1-5-0.4-7.4c-0.4-3.8-1.2-7.3-2.2-10.5
		c2.2-0.2,4-0.2,5.6,0.2c2.1,0.4,3.5,1.3,4.2,2.5c0.9,1.3,1.1,3.2,0.4,5.6C54.9,24.9,53.4,27.8,51.1,30.8z M51,49.7
		c-1.6,0.3-3.5,0.4-5.6,0.2c1-2.9,1.7-6.2,2.1-9.7c1.9-1.6,3.6-3.3,5-5c1.5,2.2,2.6,4.4,3.1,6.3c0.7,2.5,0.4,4.3-0.4,5.6
		C54.4,48.3,53.1,49.2,51,49.7z M24.2,11.1c1-2,2.1-3.7,3.3-4.9C29,4.7,30.6,4,32,4c1.4,0,3,0.7,4.5,2.3c1.6,1.6,3,4,4.3,7
		c1.3,3.3,2.3,7.3,2.8,11.8c0.3,2.2,0.4,4.5,0.4,6.9c0,2.4-0.1,4.7-0.4,6.9c-0.5,4.5-1.5,8.5-2.8,11.8c-0.6,1.6-1.3,3-2.1,4.2
		l3.4,2.1c0.6-1,1.2-2.2,1.8-3.4c2.9,0.4,5.6,0.4,7.9-0.1c2.8-0.6,5.2-2,6.7-4.3c1.7-2.6,1.8-5.7,0.9-8.9c-0.7-2.7-2.3-5.6-4.3-8.5
		c2.1-2.8,3.6-5.7,4.3-8.5c0.9-3.1,0.8-6.3-0.9-8.9c-1.5-2.3-3.9-3.7-6.7-4.3c-2.4-0.5-5.1-0.5-7.9-0.1c-1.2-2.7-2.7-5.1-4.5-6.9
		C37.3,1.4,34.8,0,32,0c-2.8,0-5.3,1.4-7.4,3.4c-1.7,1.8-3.3,4.1-4.5,6.9c0.5,0.1,1.1,0.2,1.6,0.3C22.5,10.7,23.3,10.9,24.2,11.1z"
		/>
	<path class="st4" d="M12,28c0,2.2-1.8,4-4,4c-2.2,0-4-1.8-4-4c0-2.2,1.8-4,4-4C10.2,24,12,25.8,12,28z M48,8c-2.2,0-4,1.8-4,4
		c0,2.2,1.8,4,4,4c2.2,0,4-1.8,4-4C52,9.8,50.2,8,48,8z M40,52c-2.2,0-4,1.8-4,4c0,2.2,1.8,4,4,4c2.2,0,4-1.8,4-4
		C44,53.8,42.2,52,40,52z"/>
</g>
</svg>
