<?xml version="1.0" encoding="utf-8"?>
<!-- Generator: Adobe Illustrator 21.1.0, SVG Export Plug-In . SVG Version: 6.00 Build 0)  -->
<svg version="1.1" id="Layer_1" xmlns="http://www.w3.org/2000/svg" xmlns:xlink="http://www.w3.org/1999/xlink" x="0px" y="0px"
	 viewBox="0 0 64 64" style="enable-background:new 0 0 64 64;" xml:space="preserve">
<style type="text/css">
	.st0{fill:#597380;}
	.st1{fill:#0779E4;}
	.st2{fill:#57CEF3;}
	.st3{fill:#314A52;}
	.st4{fill:#A79E8B;}
</style>
<g id="Globe_1_">
	<path class="st0" d="M20,0.1c0.5,0.1,1,0.5,1.2,0.9l4.4,7.4l-3.4,2.1l-3.4-5.6c-2.2,1.6-4.2,3.5-5.8,5.7c-2,2.7-3.5,5.9-4.3,9.2
		c-0.8,3.3-1,6.8-0.5,10.1c0.5,3.4,1.7,6.6,3.4,9.5c1.8,2.9,4.1,5.5,6.8,7.5c2.7,2,5.9,3.5,9.2,4.3c2.1,0.5,4.2,0.8,6.3,0.8v4
		c-2.4,0-4.9-0.3-7.2-0.9c-3.8-0.9-7.4-2.6-10.6-5c-3.2-2.3-5.8-5.3-7.9-8.7c-2-3.4-3.4-7.1-4-11c-0.6-3.9-0.4-7.9,0.6-11.7
		c0.9-3.8,2.6-7.4,5-10.6c2.3-3.2,5.3-5.8,8.7-7.9C19,0,19.5-0.1,20,0.1z"/>
	<path class="st1" d="M50.5,17c5.9,10.6,1,18.5-5.8,28.2c-10.6,5.9-24,2.2-29.9-8.4c-5.9-10.6-2.2-24,8.4-29.9
		C33.9,0.9,44.6,6.4,50.5,17z"/>
	<path class="st2" d="M25.2,10.3c0.3-0.2,0.9-0.3,1.9,0c1,0.3,2.3,1,3.7,2.1c0.4,0.3,0.7,0.6,1.1,1l-7.5,4.2c-0.1-0.5-0.2-1-0.2-1.5
		c-0.2-1.8-0.2-3.2,0.1-4.2C24.5,10.9,24.9,10.5,25.2,10.3z M33.3,9.3c0.7,0.6,1.5,1.3,2.3,2L39.8,9C38,8.3,36,8,34,8
		c-0.8,0-1.6,0.1-2.3,0.1C32.2,8.5,32.8,8.9,33.3,9.3z M44.2,11.1l-5.9,3.3c1.2,1.5,2.4,3.2,3.5,4.9l6.9-3.9
		C47.4,13.8,45.9,12.3,44.2,11.1z M50.6,19l-6.9,3.9c1,1.9,1.8,3.7,2.4,5.5l5.9-3.3C51.9,22.9,51.4,20.9,50.6,19z M28.3,35.6
		c-0.7-1-1.4-2-2-3l-3.2,1.8C24.6,35,26.4,35.4,28.3,35.6z M18.9,32.1l5.4-3c-1-1.9-1.8-3.7-2.4-5.5L16,26.9
		C16.3,29,17.3,30.8,18.9,32.1z M16.4,22.1l4.3-2.4c-0.3-1-0.4-2-0.6-3c-0.1-0.7-0.1-1.3-0.2-2C18.3,16.8,17,19.3,16.4,22.1z
		 M25.5,21.6l9.3-5.2c1.2,1.4,2.4,3.1,3.5,4.9l-10.4,5.8C26.9,25.3,26.1,23.4,25.5,21.6z M29.8,30.7l10.4-5.8c1,1.9,1.8,3.8,2.4,5.6
		l-9.3,5.2C32.1,34.1,30.9,32.5,29.8,30.7z"/>
	<path class="st3" d="M31.7,8.2c7.1-0.9,14.3,2.5,18,9.1c4.8,8.5,1.9,19.2-6.4,24.2l-1.7,1l4.1,6.8c-2.4,1.2-5.1,2.1-7.8,2.5
		C36.6,51.9,35.3,52,34,52l-2,0v9l4,0v-5.1c0.8-0.1,1.6-0.1,2.5-0.3c3.9-0.6,7.6-1.9,11-4l1.7-1L47,43.8c8.8-6.5,11.7-18.7,6.2-28.5
		C47.3,4.8,34.2,1,23.7,6.6c1.5-0.7,3.1-0.6,4.7-0.1C29.4,6.8,30.6,7.4,31.7,8.2z"/>
	<path class="st4" d="M16,62c0-1.1,0.9-2,2-2h32c1.1,0,2,0.9,2,2v2H16V62z"/>
</g>
</svg>
