<svg id="LinealColor" xmlns="http://www.w3.org/2000/svg" viewBox="0 0 128 128"><title>avatar-02_2</title><path d="M100.31,108.805c-2.18-3.47-10.37-15.03-21.41-20.18C90.43,82.605,92.525,71.65,95.115,64.4c8.57-24-3.325-55.625-31.625-55.625s-39.695,31-31.125,55c2.59,7.25,4.185,18.83,15.715,24.85-11.04,5.15-19.23,16.71-21.41,20.18-2.53,4.04-.22,7.58,3.41,9.58,3.74,2.06,15.13,6.39,33.41,6.39s29.67-4.33,33.41-6.39C100.53,116.385,102.84,112.845,100.31,108.805Z" fill="#4b3956"/><path d="M61.8,93.037C39.976,89.483,32.569,74.991,29.129,65.362,20.556,41.368,35.18,2.775,63.476,2.775h.029c28.295,0,42.919,38.593,34.347,62.587C94.411,74.991,87,89.483,65.183,93.037l-.126.023a9.026,9.026,0,0,1-3.153,0Z" fill="#5c4666"/><path d="M86.468,44.933c-1.9-10.547-10.283-22.095-22.978-22.095s-21.074,11.548-22.978,22.1c-.892,4.943-.681,15.187.719,19.667,1.863,5.959,4.86,10.906,8.086,13.965a137.188,137.188,0,0,0,11.439,8.951,4.675,4.675,0,0,0,5.468,0,137.023,137.023,0,0,0,11.439-8.951c3.226-3.059,6.223-8.006,8.086-13.965C87.15,60.12,87.361,49.876,86.468,44.933Z" fill="#ffb497"/><path d="M70.97,34.975h-.1c-.67,9.14-12.98,7.9-15.3-1.34-1.71,7.07-12.22,7.96-12.5,3.33v-.01C46.82,28.9,53.93,21.7,63.49,21.7c9.09,0,15.96,6.5,19.83,14.06v.01C84.75,41.675,75.59,40.985,70.97,34.975Z" fill="#aa6659"/><path d="M73.8,81.835c-2.56,2.02-5.49,4.18-7.58,5.68a4.653,4.653,0,0,1-5.46,0c-2.09-1.5-5.02-3.66-7.58-5.68a27.949,27.949,0,0,0,5.07,1.89,21.4,21.4,0,0,0,5.24.81A26.531,26.531,0,0,0,73.8,81.835Z" fill="#ff7364"/><path d="M81.26,56.7c-2.894.185-8.554.082-11.514,0a2.566,2.566,0,0,1-2.432-2.144,25.164,25.164,0,0,1-.49-4.564,2.575,2.575,0,0,1,2.432-2.646,105.648,105.648,0,0,1,12.5,0,2.6,2.6,0,0,1,2.432,2.646,23.942,23.942,0,0,1-.491,4.564A2.668,2.668,0,0,1,81.26,56.7Z" fill="#f7f0df"/><path d="M45.72,56.7c2.894.185,8.554.082,11.514,0a2.566,2.566,0,0,0,2.432-2.144,25.074,25.074,0,0,0,.491-4.564,2.575,2.575,0,0,0-2.432-2.646,105.649,105.649,0,0,0-12.5,0A2.593,2.593,0,0,0,42.8,49.989a23.859,23.859,0,0,0,.49,4.564A2.67,2.67,0,0,0,45.72,56.7Z" fill="#f7f0df"/><path d="M81.839,46.346a106.826,106.826,0,0,0-12.653,0,3.535,3.535,0,0,0-3.154,2.442,13.347,13.347,0,0,0-5.086-.009,3.536,3.536,0,0,0-3.15-2.433,106.843,106.843,0,0,0-12.654,0,3.581,3.581,0,0,0-3.344,3.63,24.946,24.946,0,0,0,.52,4.82,3.647,3.647,0,0,0,3.339,2.9c1.23.078,2.929.1,4.658.1,3,0,6.091-.079,6.947-.1a3.544,3.544,0,0,0,3.38-2.927,27.4,27.4,0,0,0,.495-3.968,11.416,11.416,0,0,1,4.707.011,27.422,27.422,0,0,0,.494,3.955A3.545,3.545,0,0,0,69.719,57.7c.855.024,3.944.1,6.946.1,1.729,0,3.43-.027,4.658-.1a3.646,3.646,0,0,0,3.339-2.9,24.948,24.948,0,0,0,.521-4.82A3.583,3.583,0,0,0,81.839,46.346ZM57.207,55.7c-3.858.107-8.885.163-11.423,0a1.7,1.7,0,0,1-1.526-1.39A23.164,23.164,0,0,1,43.8,50a1.6,1.6,0,0,1,1.519-1.663c1.446-.127,3.6-.183,5.791-.183,2.434,0,4.918.068,6.546.184a1.576,1.576,0,0,1,1.493,1.6,1.084,1.084,0,0,0,.009.127,24.348,24.348,0,0,1-.467,4.266A1.559,1.559,0,0,1,57.207,55.7Zm25.516-1.388A1.7,1.7,0,0,1,81.2,55.7c-2.538.161-7.563.106-11.423,0a1.562,1.562,0,0,1-1.483-1.362A24.374,24.374,0,0,1,67.823,50a1.587,1.587,0,0,1,1.5-1.66c1.627-.116,4.111-.184,6.545-.184,2.193,0,4.346.056,5.791.183A1.6,1.6,0,0,1,83.183,50,23.335,23.335,0,0,1,82.723,54.309Z" fill="#473049"/><path d="M59.493,69.316a.976.976,0,0,1-.919-.708,1.035,1.035,0,0,1,.694-1.266,60.487,60.487,0,0,1,8.341-.013,1,1,0,0,1-.478,1.941c-.738-.107-6.659-.109-7.345,0A.939.939,0,0,1,59.493,69.316Z" fill="#473049"/><path d="M63.471,61.415c-.027,0-2.671-.043-2.671-1.59a1,1,0,0,1,1.82-.572,3.159,3.159,0,0,0,.851.162,3.2,3.2,0,0,0,.859-.162,1,1,0,0,1,1.82.572C66.15,61.372,63.5,61.415,63.471,61.415Z" fill="#473049"/><path d="M101.157,108.273c-.9-1.43-8.78-13.6-20.134-19.7C91.836,82.244,96.338,72.57,98.792,65.7c5.229-14.644,2.091-34.5-7.631-48.3C84.059,7.325,74.235,1.775,63.5,1.775l-.01,0-.01,0c-10.735,0-20.558,5.55-27.661,15.627C26.1,31.2,22.96,51.057,28.188,65.7c2.455,6.868,6.956,16.542,17.77,22.875-11.354,6.093-19.236,18.266-20.136,19.7a6.935,6.935,0,0,0-1.015,5.5,9.252,9.252,0,0,0,4.791,5.489c1.211.667,12.448,6.513,33.892,6.513s32.682-5.846,33.893-6.513a9.258,9.258,0,0,0,4.791-5.489A6.938,6.938,0,0,0,101.157,108.273Zm-.919,5a7.315,7.315,0,0,1-3.82,4.24c-1.165.641-11.983,6.265-32.928,6.265s-31.762-5.624-32.927-6.265a7.317,7.317,0,0,1-3.821-4.24,4.926,4.926,0,0,1,.775-3.932c.9-1.433,9.046-14.016,20.568-19.6a43.8,43.8,0,0,0,8.234,3.122c-3.244,5.67-4.138,13.34-4.138,17.187a1,1,0,0,0,2,0c0-3.757.894-11.341,4.166-16.672,1.126.255,2.216.475,3.294.649a.959.959,0,0,0,.16.013,1,1,0,0,0,.158-1.987c-.778-.126-1.566-.28-2.365-.447.224-.272.452-.54.7-.791a1,1,0,1,0-1.437-1.39A15.314,15.314,0,0,0,57.466,91.1a41.955,41.955,0,0,1-8.923-3.361C37.132,81.781,32.536,71.925,30.071,65.029c-5.022-14.069-1.987-33.18,7.383-46.474,6.717-9.531,15.96-14.78,26.026-14.78l.01,0,.01,0c10.066,0,19.31,5.249,26.026,14.78,9.37,13.294,12.406,32.405,7.383,46.473-2.465,6.9-7.06,16.753-18.471,22.71A41.9,41.9,0,0,1,69.514,91.1a15.46,15.46,0,0,0-1.385-1.679,1,1,0,0,0-1.438,1.39c.243.251.471.519.695.791-.8.167-1.587.321-2.365.447a1,1,0,0,0,.159,1.987.977.977,0,0,0,.16-.013c1.077-.174,2.167-.394,3.294-.649C71.905,98.7,72.8,106.286,72.8,110.045a1,1,0,0,0,2,0c0-3.849-.895-11.523-4.137-17.187A43.924,43.924,0,0,0,78.9,89.736c11.522,5.586,19.668,18.169,20.567,19.6A4.928,4.928,0,0,1,100.238,113.27Z" fill="#473049"/><path d="M74.421,82.618c1.645-1.3,2.966-2.423,3.927-3.327,3.485-3.3,6.531-8.544,8.357-14.388,1.469-4.71,1.643-15.188.749-20.148a34.674,34.674,0,0,0-3.2-9.369.937.937,0,0,0-.038-.086c-4.752-9.282-12.3-14.6-20.721-14.6-8.739,0-16.712,5.921-21.326,15.838a.937.937,0,0,0-.036.087,34.638,34.638,0,0,0-2.6,8.138c-.892,4.957-.718,15.435.751,20.145,1.826,5.844,4.871,11.088,8.359,14.391.959.9,2.279,2.019,3.927,3.326,3.048,2.406,6.34,4.793,7.612,5.706a5.649,5.649,0,0,0,6.63,0C68.078,87.413,71.37,85.026,74.421,82.618ZM63.49,22.7c10.739,0,16.734,9.256,18.872,13.387.414,1.85-.539,2.317-.858,2.47-1.92.921-6.6-.218-9.634-4.058a14.255,14.255,0,0,0-.2-2.9,1,1,0,0,0-1.969.347,12.084,12.084,0,0,1,.177,2.963c-.227,3.083-2.009,5.067-4.768,5.306-3.246.284-7.358-2.012-8.565-6.816l0-.005c0-.007,0-.015,0-.023a8.7,8.7,0,0,1-.224-1.143,1,1,0,0,0-1.983.269c.055.4.126.76.209,1.11-1.078,3.927-5.283,5.446-7.845,5.206-.722-.063-2.346-.368-2.583-1.7C48.405,28.078,55.629,22.7,63.49,22.7Zm-21.3,41.612c-1.355-4.342-1.539-14.5-.692-19.194a31.648,31.648,0,0,1,1.641-5.735A5.34,5.34,0,0,0,46.517,40.8c.253.022.508.034.766.034a9.826,9.826,0,0,0,8.232-4.5,10.421,10.421,0,0,0,9.068,5.9c.233,0,.466-.009.694-.029a6.865,6.865,0,0,0,6.213-5.159,12.7,12.7,0,0,0,8.416,3.807,5.713,5.713,0,0,0,2.461-.494,3.658,3.658,0,0,0,1.394-1.144,31.884,31.884,0,0,1,1.725,5.9c.847,4.7.663,14.852-.69,19.194-1.728,5.527-4.579,10.459-7.821,13.53-.9.846-2.151,1.906-3.708,3.143a25.633,25.633,0,0,1-9.777,2.555,20.273,20.273,0,0,1-4.977-.774,27.064,27.064,0,0,1-4.8-1.78c-1.559-1.239-2.809-2.3-3.706-3.141C46.764,74.766,43.912,69.834,42.186,64.307ZM61.343,86.7c-.525-.376-1.405-1.013-2.459-1.79a20.924,20.924,0,0,0,4.606.622,20.577,20.577,0,0,0,4.625-.635c-1.063.783-1.951,1.425-2.48,1.8A3.653,3.653,0,0,1,61.343,86.7Z" fill="#473049"/><path d="M68.665,44.818a21.133,21.133,0,0,1,3.547-.9,23.608,23.608,0,0,1,7.308,0,17.789,17.789,0,0,1,3.594.913.8.8,0,0,1-.474,1.533l-.054-.013a26.073,26.073,0,0,0-3.315-.559,30.471,30.471,0,0,0-6.8.042c-1.133.1-2.246.33-3.374.531l-.036.006a.8.8,0,0,1-.4-1.554Z" fill="#473049"/><path d="M57.879,46.366c-1.128-.2-2.242-.427-3.375-.531a30.462,30.462,0,0,0-6.794-.042,26.118,26.118,0,0,0-3.316.559l-.054.013a.8.8,0,0,1-.474-1.533,17.789,17.789,0,0,1,3.594-.913,23.607,23.607,0,0,1,7.308,0,21.144,21.144,0,0,1,3.548.9.8.8,0,0,1-.4,1.554Z" fill="#473049"/></svg>