<svg id="LinealColor" xmlns="http://www.w3.org/2000/svg" viewBox="0 0 128 128"><title>avatar-02_10</title><path d="M91.966,41.336c.04,2.19-.12,4.59-.12,6.13-.173,1.858-3.141,2.233-4.02.14-.83-1.24-4.16-5.99-6.22-8.43C86.116,40,89.546,40.9,91.966,41.336Z" fill="#9b4e4e"/><path d="M86.426,61.776c-4.405-4.265-4.405-12.2,1.4-14.17a5.114,5.114,0,0,1,4.02-.14,4.137,4.137,0,0,1,1.38.83c1.96,1.82,2.46,4.48,1.48,8.02C93.606,60.246,89.336,63.256,86.426,61.776Z" fill="#ff7364"/><path d="M33.786,41.336c2.42-.44,5.83-1.34,10.33-2.15-2.06,2.44-5.38,7.18-6.21,8.42-.446,1.218-3.988,2.322-4-.14C33.906,45.926,33.746,43.526,33.786,41.336Z" fill="#9b4e4e"/><path d="M43.064,54.645a6.713,6.713,0,0,1-3.758,7.131v.01c-2.91,1.46-7.16-1.55-8.26-5.47-.98-3.54-.48-6.2,1.48-8.02a4.137,4.137,0,0,1,1.38-.83,5.068,5.068,0,0,1,4,.14C40.564,48.261,42.874,52.435,43.064,54.645Z" fill="#ff7364"/><path d="M100.406,109.736c-2.209-3.53-8.189-10.87-19.43-16.12a27.287,27.287,0,0,1-5.769-3.31,10.965,10.965,0,0,1-2.971-3.519c-1.45,2.61-5.97,4.06-9.36,4.06s-7.919-1.45-9.38-4.06a10.962,10.962,0,0,1-2.97,3.519,27.2,27.2,0,0,1-5.76,3.31c-11.25,5.25-17.23,12.59-19.44,16.12-2.59,4.12-.19,6.351,3.5,8.39,3.4,1.87,12.95,5.56,28.111,6.36q2.834.151,5.919.15h.02c2.061,0,4.03-.049,5.92-.15,15.161-.8,24.71-4.49,28.11-6.36C100.606,116.087,103,113.856,100.406,109.736Z" fill="#d9d7dd"/><path d="M64.957,99.587l-.01-.011a8.086,8.086,0,0,0,2.609-3c-1.6-1.69-3.31-3.62-4.68-3.62h-.02c-1.37,0-3.08,1.93-4.68,3.62a8.026,8.026,0,0,0,2.62,3l-.01.011c-2.11,6.31-3.849,19.269-3.849,24.889v.01q2.834.151,5.919.15h.02c2.061,0,4.03-.049,5.92-.15C68.8,118.866,67.056,105.9,64.957,99.587Z" fill="#5e4c91"/><path d="M64.956,99.586c2.1,6.31,3.84,19.28,3.84,24.9q-2.835.15-5.92.15h-.02q-3.09,0-5.92-.15v-.01c0-5.62,1.74-18.58,3.85-24.89l.01-.01a3.506,3.506,0,0,0,4.15,0Z" fill="#5e4c91"/><path d="M62.876,92.956c1.37,0,3.08,1.93,4.68,3.62a8.081,8.081,0,0,1-2.61,3,3.506,3.506,0,0,1-4.15,0,8.026,8.026,0,0,1-2.62-3c1.6-1.69,3.31-3.62,4.68-3.62Z" fill="#5e4c91"/><path d="M62.856,92.956c-1.37,0-3.08,1.93-4.68,3.62-1.22,1.3-2.37,2.46-3.24,2.53A2.154,2.154,0,0,1,52.906,98c-.85-1.43-2.53-4.93-2.37-7.68l-.01-.01a10.979,10.979,0,0,0,2.97-3.52c1.46,2.61,5.99,4.06,9.38,4.06s7.91-1.45,9.36-4.06a10.979,10.979,0,0,0,2.97,3.52l-.01.01c.16,2.75-1.52,6.25-2.37,7.68a2.154,2.154,0,0,1-2.03,1.11c-.87-.07-2.02-1.23-3.24-2.53-1.6-1.69-3.31-3.62-4.68-3.62Z" fill="#ebe8ef"/><path d="M81.606,39.176a104.747,104.747,0,0,0-37.48,0l-.01.01c-2.06,2.44-5.38,7.18-6.21,8.42.1,2.25.26,4.621.45,6.83a64.639,64.639,0,0,0,.95,7.341v.01a28.48,28.48,0,0,0,8.08,14.7v.01a23.669,23.669,0,0,0,7.331,4.851,24.879,24.879,0,0,0,8.139,1.839h.02a24.89,24.89,0,0,0,8.14-1.839,23.42,23.42,0,0,0,7.35-4.88,28.549,28.549,0,0,0,8.06-14.69,105.587,105.587,0,0,0,1.4-14.171C87,46.366,83.666,41.616,81.606,39.176Z" fill="#ff977b"/><path d="M72.236,86.787c-1.45,2.61-5.97,4.06-9.36,4.06s-7.919-1.45-9.38-4.06a10.794,10.794,0,0,0,1.04-3.19,13.319,13.319,0,0,0,.181-2.25,24.879,24.879,0,0,0,8.139,1.839h.02a24.89,24.89,0,0,0,8.14-1.839,12.957,12.957,0,0,0,.16,2.12A10.537,10.537,0,0,0,72.236,86.787Z" fill="#ff7364"/><path d="M71.176,83.467a15.378,15.378,0,0,1-8.41,2.339,15.588,15.588,0,0,1-8.23-2.209,13.319,13.319,0,0,0,.181-2.25c2.7,1.089,13.6,1.089,16.3,0A12.957,12.957,0,0,0,71.176,83.467Z" fill="#ed4850"/><path d="M95.166,39.456a6.574,6.574,0,0,0-1.94-1.919c0-18.181-8.19-27.3-19.12-30.771-1.27-3.1-8.87-4.119-11.23-4.13-2.37.011-9.97,1.031-11.24,4.13-10.93,3.47-19.11,12.59-19.11,30.771a6.5,6.5,0,0,0-1.95,1.919,1.554,1.554,0,0,0,1.44,2.391c.46-.051.98-.12,1.55-.231,3.03-.54,7.61-1.81,13.91-2.74a105.435,105.435,0,0,1,30.79,0c6.3.93,10.89,2.2,13.92,2.74.57.111,1.08.18,1.54.231A1.551,1.551,0,0,0,95.166,39.456Z" fill="#ffc440"/><path d="M54.916,32.526l.02.28c-9.97.68-18.78,2.55-22.41,4.73,0-18.18,8.18-27.3,19.11-30.77A195.45,195.45,0,0,0,54.916,32.526Z" fill="#f9af2b"/><path d="M74.106,6.766c10.93,3.47,19.12,12.59,19.12,30.77-3.63-2.18-12.44-4.05-22.41-4.73l.02-.28A196.909,196.909,0,0,0,74.106,6.766Z" fill="#f9af2b"/><path d="M78.266,38.876a105.435,105.435,0,0,0-30.79,0c-6.3.93-10.88,2.2-13.91,2.74-.57.11-1.09.18-1.55.23a1.553,1.553,0,0,1-1.44-2.39,6.5,6.5,0,0,1,1.95-1.92c3.63-2.18,12.44-4.05,22.41-4.73,2.59-.18,5.26-.28,7.94-.28s5.35.1,7.94.28c9.97.68,18.78,2.55,22.41,4.73a6.577,6.577,0,0,1,1.94,1.92,1.551,1.551,0,0,1-1.44,2.39c-.46-.05-.97-.12-1.54-.23C89.156,41.076,84.566,39.806,78.266,38.876Z" fill="#ffcc4d"/><path d="M68,62.006c2.483.862,10.35,7.48,10.37,14.46a23.4,23.4,0,0,1-7.35,4.88,24.868,24.868,0,0,1-8.14,1.84h-.02a24.868,24.868,0,0,1-8.14-1.84,23.661,23.661,0,0,1-7.33-4.85v-.01c.01-6.98,7.89-13.61,10.37-14.47a16.77,16.77,0,0,1,5.12-.86A16.951,16.951,0,0,1,68,62.006Z" fill="#9b4e4e"/><rect x="72.983" y="46.968" width="4.876" height="5.758" rx="2.438" ry="2.438" fill="#473049"/><path d="M68.429,44.059a24.126,24.126,0,0,1,3.934-.981,33.829,33.829,0,0,1,4-.416,14.144,14.144,0,0,1,4.136.383,7.483,7.483,0,0,1,1.977.776,7.005,7.005,0,0,1,1.529,1.357.306.306,0,0,1-.019.433.31.31,0,0,1-.244.078,10.553,10.553,0,0,1-1.9-.511,16.058,16.058,0,0,0-1.734-.422,13.017,13.017,0,0,0-3.637-.091,38.156,38.156,0,0,0-7.42,1.3l-.022.006a1,1,0,0,1-.6-1.907Z" fill="#473049"/><path d="M80.311,49.454c-.6-.235-1.345-.5-2.051-.7a10.254,10.254,0,0,0-2.166-.453,6.945,6.945,0,0,0-2.066.086,3.551,3.551,0,0,0-1.633.8l-.022.02a1,1,0,0,1-1.39-1.437,5.024,5.024,0,0,1,2.611-1.389,7.748,7.748,0,0,1,2.75-.045,11.661,11.661,0,0,1,2.532.688,5.952,5.952,0,0,1,2.246,1.488.619.619,0,0,1-.687.991Z" fill="#473049"/><rect x="47.894" y="46.968" width="4.876" height="5.758" rx="2.438" ry="2.438" transform="translate(100.664 99.693) rotate(-180)" fill="#473049"/><path d="M56.7,45.96a38.156,38.156,0,0,0-7.42-1.3,13.017,13.017,0,0,0-3.637.091,16.058,16.058,0,0,0-1.734.422,10.553,10.553,0,0,1-1.9.511.306.306,0,0,1-.342-.266.315.315,0,0,1,.079-.245,6.982,6.982,0,0,1,1.529-1.357,7.483,7.483,0,0,1,1.977-.776,14.144,14.144,0,0,1,4.136-.383,33.829,33.829,0,0,1,4,.416,24.126,24.126,0,0,1,3.934.981,1,1,0,0,1-.6,1.908Z" fill="#473049"/><path d="M44.631,48.512a5.952,5.952,0,0,1,2.246-1.488,11.661,11.661,0,0,1,2.532-.688,7.748,7.748,0,0,1,2.75.045A5.024,5.024,0,0,1,54.77,47.77a1,1,0,0,1-1.387,1.439l-.025-.022a3.551,3.551,0,0,0-1.633-.8,6.945,6.945,0,0,0-2.066-.086,10.254,10.254,0,0,0-2.166.453c-.706.206-1.453.467-2.051.7l-.123.049a.62.62,0,0,1-.688-.991Z" fill="#473049"/><path d="M62.867,59.967c-.975,0-3.311-.613-3.311-2.13a1,1,0,0,1,1.963-.271,2.48,2.48,0,0,0,2.7,0,1,1,0,0,1,1.963.271C66.186,59.354,63.843,59.967,62.867,59.967Z" fill="#473049"/><path d="M66.948,64.991a7.673,7.673,0,0,1-4.081,1.226A7.059,7.059,0,0,1,58.948,65a1,1,0,0,0-1.082,1.683,9.1,9.1,0,0,0,5,1.539,9.657,9.657,0,0,0,5.147-1.535,1,1,0,1,0-1.066-1.691Z" fill="#473049"/><path d="M101.254,109.206c-1.5-2.394-7.36-10.659-19.857-16.5a26.463,26.463,0,0,1-5.567-3.185,9.933,9.933,0,0,1-2.706-3.2,10.307,10.307,0,0,1-1.076-4.333,24.508,24.508,0,0,0,7.01-4.805,29.43,29.43,0,0,0,8.085-14.126,4.892,4.892,0,0,0,.935.095,6.11,6.11,0,0,0,2.45-.546,9.613,9.613,0,0,0,5.142-6.029c1.079-3.9.485-6.931-1.764-9.02a4.953,4.953,0,0,0-1.05-.717c.01-.478.025-.992.044-1.561.03-.874.062-1.83.07-2.787.145.019.294.041.434.053a2.509,2.509,0,0,0,2.428-1.24,2.475,2.475,0,0,0-.076-2.7A7.955,7.955,0,0,0,94,36.758C93.819,16.57,83.529,8.829,74.71,5.91c-2.029-3.46-9.9-4.266-11.837-4.274-1.934.008-9.8.814-11.83,4.274C42.226,8.826,31.935,16.565,31.755,36.755A7.612,7.612,0,0,0,30,38.615a2.467,2.467,0,0,0-.087,2.688,2.513,2.513,0,0,0,2.169,1.263c.085,0,.17-.005.255-.013.147-.013.3-.036.45-.055.008.957.04,1.913.07,2.787.019.569.034,1.083.044,1.562a4.923,4.923,0,0,0-1.051.717C29.6,49.652,29,52.686,30.083,56.587a9.637,9.637,0,0,0,5.127,6.02,6.108,6.108,0,0,0,2.462.552,4.863,4.863,0,0,0,.916-.091,29.4,29.4,0,0,0,8.076,14.111c.008.009.014.019.022.027l.01.013a24.769,24.769,0,0,0,6.988,4.774,10.3,10.3,0,0,1-1.074,4.331A9.955,9.955,0,0,1,49.9,89.53a26.627,26.627,0,0,1-5.554,3.18c-12.5,5.835-18.365,14.1-19.863,16.494a6.105,6.105,0,0,0-1.092,4.852c.585,2.268,2.833,3.773,4.957,4.947,4.616,2.539,14.861,5.76,28.538,6.482,1.9.1,3.907.151,5.974.151h.019c2.069,0,4.078-.05,5.973-.151,13.676-.722,23.922-3.943,28.54-6.483,2.122-1.17,4.371-2.672,4.957-4.94A6.1,6.1,0,0,0,101.254,109.206ZM70.642,80.419a23.894,23.894,0,0,1-7.766,1.767l-.009,0-.01,0a23.911,23.911,0,0,1-7.767-1.767,22.73,22.73,0,0,1-6.674-4.336c.314-6.323,7.639-12.418,9.671-13.123a15.773,15.773,0,0,1,4.789-.8,16.094,16.094,0,0,1,4.79.793c2.282.8,9.352,6.832,9.671,13.106A22.453,22.453,0,0,1,70.642,80.419Zm-15,2.336a24.468,24.468,0,0,0,7.214,1.431l.01,0,.009,0a24.45,24.45,0,0,0,7.213-1.431,12.329,12.329,0,0,0,1.018,3.937c-1.463,1.959-5.288,3.154-8.231,3.154s-6.777-1.2-8.249-3.156A12.316,12.316,0,0,0,55.643,82.755ZM90.971,42.163c0,1.036-.037,2.1-.069,3.054-.012.345-.022.667-.032.983a6.418,6.418,0,0,0-2.673.175c-.879-1.273-2.558-3.649-4.123-5.7,1.478.3,2.832.6,4.064.875C89.185,41.783,90.125,41.993,90.971,42.163Zm2.773,13.884a7.645,7.645,0,0,1-4.02,4.734,3.784,3.784,0,0,1-2.149.333c.307-1.7.566-3.923.774-6.278A2.708,2.708,0,0,1,91.214,53.8a1,1,0,0,0,.545-1.925,4.972,4.972,0,0,0-3.2.258c.094-1.32.171-2.626.231-3.854a4.538,4.538,0,0,1,2.7.126,3.1,3.1,0,0,1,1.047.626C94.226,50.59,94.618,52.886,93.744,56.047Zm-1.78-20.408c-4.15-1.822-11.631-3.318-20.03-3.975a206.3,206.3,0,0,0,3.02-23.53C85.69,12.076,91.541,21.538,91.964,35.639Zm-29.091-32c2.914.013,8.985,1.188,10.145,3.305a198.661,198.661,0,0,1-3.1,24.592c-2.421-.143-4.793-.227-7.041-.227s-4.635.084-7.05.227A198.9,198.9,0,0,1,52.735,6.941C53.9,4.824,59.966,3.649,62.873,3.636ZM50.8,8.134a206.051,206.051,0,0,0,3.012,23.53c-8.4.656-15.881,2.152-20.021,3.973C34.212,21.534,40.063,12.073,50.8,8.134ZM32.145,40.562a.539.539,0,0,1-.513-.274.481.481,0,0,1,.011-.539,5.369,5.369,0,0,1,1.621-1.607c3.43-2.073,12.187-3.909,21.789-4.568,2.687-.177,5.32-.268,7.823-.268,2.487,0,5.116.091,7.812.268,9.6.66,18.363,2.5,21.8,4.569a5.568,5.568,0,0,1,1.621,1.609.493.493,0,0,1,0,.537.54.54,0,0,1-.52.271c-.458-.04-.992-.128-1.448-.207-1-.182-2.192-.448-3.571-.755-1.951-.435-4.163-.928-6.788-1.405a105.756,105.756,0,0,0-37.838,0,1.03,1.03,0,0,0-.122.029c-2.595.471-4.87.978-6.7,1.387-1.356.3-2.526.564-3.509.743C33.152,40.432,32.618,40.52,32.145,40.562Zm5.392,5.813a6.367,6.367,0,0,0-2.654-.175c-.01-.316-.02-.638-.032-.983-.032-.959-.067-2.018-.069-3.054.829-.168,1.751-.373,2.777-.6,1.241-.277,2.6-.577,4.094-.881C40.093,42.726,38.416,45.1,37.537,46.375Zm-1.518,14.4A7.662,7.662,0,0,1,32.01,56.05c-.875-3.164-.483-5.46,1.2-7.02A3.127,3.127,0,0,1,34.26,48.4a4.472,4.472,0,0,1,2.679-.123c.061,1.242.139,2.534.234,3.844a4.959,4.959,0,0,0-3.181-.248,1,1,0,0,0,.541,1.926,2.7,2.7,0,0,1,2.853,1.006c.166,1.914.422,4.369.772,6.312A3.807,3.807,0,0,1,36.019,60.778Zm4.285.888a1.024,1.024,0,0,0-.056-.279,64.713,64.713,0,0,1-.884-6.916l0-.015a.956.956,0,0,0-.016-.131c-.186-2.173-.333-4.385-.429-6.435.974-1.43,3.834-5.5,5.728-7.786a103.359,103.359,0,0,1,36.428,0c1.928,2.338,4.783,6.393,5.734,7.786A101.876,101.876,0,0,1,85.45,61.562a27.928,27.928,0,0,1-6.343,12.691c-1.381-6.57-8.315-12.325-10.786-13.192a17.975,17.975,0,0,0-5.445-.9,17.675,17.675,0,0,0-5.448.915c-2.47.857-9.41,6.6-10.785,13.2A27.867,27.867,0,0,1,40.3,61.666ZM53.591,88.525c2.148,2.164,6.12,3.321,9.285,3.321S70,90.69,72.144,88.527a12.176,12.176,0,0,0,2.046,2.218,15.892,15.892,0,0,1-2.22,6.735,1.184,1.184,0,0,1-1.094.63c-.55-.045-2.033-1.623-2.593-2.221l-.349-.37c-1.726-1.832-3.355-3.563-5.058-3.563l-.009,0-.01,0c-1.7,0-3.33,1.729-5.055,3.56l-.355.376c-.558.595-2.038,2.173-2.593,2.218a1.2,1.2,0,0,1-1.088-.625,15.911,15.911,0,0,1-2.223-6.74A12.229,12.229,0,0,0,53.591,88.525Zm9.285,35.111-.009,0-.01,0c-1.691,0-3.325-.042-4.9-.111A111.437,111.437,0,0,1,61.4,100.983a4.126,4.126,0,0,0,2.944,0,111.976,111.976,0,0,1,3.437,22.537C66.2,123.594,64.568,123.636,62.876,123.636ZM64.4,98.742a2.518,2.518,0,0,1-3.063-.01,6.708,6.708,0,0,1-1.917-2.011c1.149-1.218,2.64-2.765,3.442-2.765l.01,0,.009,0c.8,0,2.293,1.546,3.442,2.765A6.781,6.781,0,0,1,64.4,98.742Zm-39.07,14.814a4.263,4.263,0,0,1,.849-3.289c1.426-2.277,7.01-10.142,19.015-15.744a36.5,36.5,0,0,0,4.461-2.354,20.155,20.155,0,0,0,2.4,6.343,3.151,3.151,0,0,0,2.71,1.6c.085,0,.171,0,.256-.011A5.411,5.411,0,0,0,58,98.2a8.769,8.769,0,0,0,1.623,1.763,112.642,112.642,0,0,0-3.668,23.456c-16.877-1.058-25.683-5.638-26.645-6.166C26.832,115.881,25.639,114.776,25.325,113.556Zm75.085.006c-.315,1.219-1.507,2.323-3.985,3.688-.964.53-9.772,5.11-26.647,6.168a113.333,113.333,0,0,0-3.659-23.46A8.847,8.847,0,0,0,67.732,98.2a5.424,5.424,0,0,0,2.982,1.9c.086.008.172.011.257.011a3.157,3.157,0,0,0,2.715-1.607,20.156,20.156,0,0,0,2.4-6.345,36.561,36.561,0,0,0,4.469,2.361c12,5.6,17.581,13.467,19.007,15.746A4.264,4.264,0,0,1,100.41,113.562Z" fill="#473049"/></svg>