<svg id="LinealColor" xmlns="http://www.w3.org/2000/svg" viewBox="0 0 128 128"><title>avatar-02_19</title><path d="M108.68,107.39A59.374,59.374,0,0,0,97.56,93.84c-1.08-.97-2.211-1.91-3.41-2.84-2.12-1.65-4.45-3.29-7.09-5H34.3c-2.681,1.74-5.06,3.4-7.2,5.08-1.159.91-2.26,1.82-3.3,2.76a59.374,59.374,0,0,0-11.12,13.55c-2.97,4.76.6,7.75,3.949,9.78.591.37,1.181.7,1.72,1C24.43,121.58,46.889,125,60.68,125s36.25-3.42,42.33-6.83c.54-.3,1.129-.63,1.72-1C108.08,115.14,111.65,112.15,108.68,107.39Z" fill="#ebe8ef"/><path d="M114.26,39.32c.34,4.52.42,11.1-.73,14.47-.57,1.68-2.74,4.27-6.9,3.72a4.963,4.963,0,0,1,.21-4.26h.01a3.3,3.3,0,0,0,3.25-2.32,70.129,70.129,0,0,0,.74-11.19A18.761,18.761,0,0,0,114.26,39.32Z" fill="#4b3956"/><path d="M112.07,31.21a4.347,4.347,0,0,1,2.19,8.11,4.28,4.28,0,0,1-2.19.6,4.159,4.159,0,0,1-1.23-.18,4.354,4.354,0,0,1,1.23-8.53Z" fill="#ebe8ef"/><path d="M20.21,41.66c1.212,7.4,1.369,20.654.72,24.67-4.21,0-6.42-5.54-6.42-12.37S16,41.66,20.21,41.66Z" fill="#5981d1"/><path d="M106.84,53.25c.01.24.01.47.01.71a26.851,26.851,0,0,1-.22,3.55c-.64,5.1-2.75,8.82-6.2,8.82,0-6.7.333-15.41.72-24.67C105.21,41.66,106.74,46.75,106.84,53.25Z" fill="#5981d1"/><path d="M27.39,99.83c.04,4.17-4.75,13.29-10.76,17.34-3.35-2.03-6.92-5.02-3.95-9.78A59.374,59.374,0,0,1,23.8,93.84,6.93,6.93,0,0,1,27.39,99.83Z" fill="#5981d1"/><path d="M108.68,107.39c2.97,4.76-.6,7.75-3.95,9.78-6.01-4.05-10.8-13.17-10.76-17.34a6.93,6.93,0,0,1,3.59-5.99A59.374,59.374,0,0,1,108.68,107.39Z" fill="#5981d1"/><path d="M60.68,90.75v7.14c-13.56,0-26.41-3.03-33.57-6.79l-.01-.02c2.14-1.68,4.52-3.34,7.2-5.08h.01C39.88,88.93,50.12,90.75,60.68,90.75Z" fill="#b8b1c4"/><path d="M87.06,86c2.64,1.71,4.97,3.35,7.09,5-7.16,3.76-19.91,6.89-33.47,6.89V90.75C71.24,90.75,81.48,88.93,87.06,86Z" fill="#b8b1c4"/><path d="M101.15,41.66a66.413,66.413,0,0,1,.78,10.26,63.884,63.884,0,0,1-1.5,14.41c-2.08,9.01-6.41,16-13.37,19.67-5.58,2.93-15.82,4.75-26.38,4.75S39.88,88.93,34.31,86H34.3c-6.97-3.67-11.29-10.67-13.37-19.67a63.884,63.884,0,0,1-1.5-14.41,66.413,66.413,0,0,1,.78-10.26C23.57,19.94,37.78,3,60.68,3S97.79,19.94,101.15,41.66Z" fill="#ebe8ef"/><path d="M92.18,49.92c0,16.84-7.25,31.5-31.5,31.5s-31.5-14.66-31.5-31.5,12.5-29.5,31.5-29.5S92.18,33.07,92.18,49.92Z" fill="#4b3956"/><circle cx="77.867" cy="33.312" r="3.312" fill="#fff"/><path d="M60.68,19.42c-19.136,0-32.5,12.542-32.5,30.5,0,14.826,5.638,32.5,32.5,32.5s32.5-17.674,32.5-32.5C93.18,31.962,79.815,19.42,60.68,19.42Zm0,61c-20.239,0-30.5-10.262-30.5-30.5,0-16.78,12.542-28.5,30.5-28.5s30.5,11.72,30.5,28.5C91.18,70.158,80.918,80.42,60.68,80.42Z" fill="#473049"/><path d="M117.43,35.56a5.355,5.355,0,1,0-7.6,4.858,62.45,62.45,0,0,1-.71,10.31,1.975,1.975,0,0,1-1.324,1.329c-.368-8.44-3.159-10.921-5.792-11.325C98.018,16.821,82.248,2,60.68,2S23.34,16.822,19.355,40.732c-2.841.434-5.845,3.246-5.845,13.228,0,7.634,2.573,12.727,6.625,13.311C22.3,76.036,26.417,82.348,32.4,86.058c-2.266,1.508-4.225,2.906-5.918,4.235-1.265.993-2.356,1.9-3.33,2.785l0,0-.015.014a60.548,60.548,0,0,0-11.3,13.767,6.787,6.787,0,0,0-1.107,5.244c.658,2.753,3.224,4.61,5.374,5.912.606.38,1.211.719,1.762,1.025C24.425,122.724,47.273,126,60.68,126s36.254-3.276,42.815-6.956c.555-.308,1.16-.647,1.753-1.019,2.163-1.31,4.729-3.167,5.387-5.92a6.787,6.787,0,0,0-1.107-5.244A60.539,60.539,0,0,0,98.227,93.1l-.017-.015,0,0c-1.083-.972-2.2-1.905-3.421-2.849h0l-.019-.016c-1.756-1.367-3.674-2.736-5.8-4.154,5.987-3.716,10.106-10.03,12.265-18.789,3.137-.455,5.417-3.619,6.258-8.7.088,0,.184.018.27.018a6.98,6.98,0,0,0,6.722-4.473c1.345-3.939,1.021-11.332.823-14.284A5.338,5.338,0,0,0,117.43,35.56ZM15.51,53.96c0-3.773.495-9.817,3.522-11.058a68.041,68.041,0,0,0-.6,9.018,66.641,66.641,0,0,0,1.235,13.167C16.807,63.948,15.51,58.936,15.51,53.96ZM86.985,87.149c1.924,1.259,3.666,2.471,5.272,3.67-7.7,3.605-19.379,5.926-30.577,6.058V91.739C71.827,91.632,81.362,89.9,86.985,87.149Zm-27.3,9.728c-11.362-.128-23.094-2.417-30.7-5.971,1.574-1.179,3.359-2.421,5.4-3.759,5.611,2.754,15.147,4.485,25.3,4.592ZM12.671,111.641a4.813,4.813,0,0,1,.857-3.722,59.183,59.183,0,0,1,10.4-12.834,6.045,6.045,0,0,1,2.461,4.755c.036,3.633-4.3,12.083-9.8,16.123C14.986,114.942,13.108,113.475,12.671,111.641Zm5.765,5.43c5.527-4.447,10-12.825,9.953-17.253a8.032,8.032,0,0,0-2.951-6.085c.55-.472,1.141-.959,1.777-1.467,7.826,3.924,20.37,6.477,32.465,6.611v25.116c-14.251-.156-35.277-3.574-40.845-6.7Zm43.244,6.922V98.877c11.921-.138,24.413-2.724,32.34-6.7q.983.775,1.894,1.56A8.037,8.037,0,0,0,92.97,99.82c-.043,4.426,4.426,12.8,9.953,17.251-.134.075-.273.155-.4.227C96.956,120.419,75.931,123.837,61.68,123.993Zm46.151-16.074a4.809,4.809,0,0,1,.857,3.722c-.436,1.831-2.308,3.3-3.914,4.322-5.5-4.04-9.839-12.49-9.8-16.121a6.045,6.045,0,0,1,2.461-4.757A59.151,59.151,0,0,1,107.831,107.919ZM86.6,85.115C81.232,87.931,71.059,89.75,60.68,89.75s-20.552-1.819-25.9-4.635a.684.684,0,0,0-.082-.038C28.336,81.7,24.033,75.315,21.9,66.1A63.065,63.065,0,0,1,20.43,51.92,65.475,65.475,0,0,1,21.2,41.813C24.806,18.489,39.933,4,60.68,4s35.874,14.489,39.481,37.815a65.429,65.429,0,0,1,.769,10.105,63.017,63.017,0,0,1-1.475,14.185C97.322,75.344,93,81.74,86.6,85.115Zm15.1-20.039A66.7,66.7,0,0,0,102.93,51.92a68.044,68.044,0,0,0-.6-9.019c2.9,1.2,3.458,6.842,3.514,10.39.008.226.008.443.008.669a26.208,26.208,0,0,1-.211,3.425C105.118,61.523,103.681,64.267,101.7,65.076Zm10.886-11.607a4.972,4.972,0,0,1-4.859,3.108c.071-.785.117-1.6.122-2.453a4.063,4.063,0,0,0,3.233-2.988,60.935,60.935,0,0,0,.746-10.234c.082,0,.162.018.245.018a5.288,5.288,0,0,0,1.282-.164C113.614,45.3,113.536,50.675,112.582,53.469Zm1.167-15.009a3.345,3.345,0,0,1-2.615.324l-.012,0a3.355,3.355,0,1,1,4.308-3.221A3.332,3.332,0,0,1,113.749,38.46Z" fill="#473049"/></svg>