<svg id="LinealColor" xmlns="http://www.w3.org/2000/svg" viewBox="0 0 128 128"><title>avatar-02_23</title><path d="M101.314,110.342c-2.2-3.5-8.48-11.01-19.62-16.2a31.859,31.859,0,0,1-5.39-2.9,9.272,9.272,0,0,1-3.01-3.43c-1.44,2.57-5.82,3.93-9.16,3.93h-.021c-3.349,0-7.709-1.33-9.149-3.91l-.01-.01a9.143,9.143,0,0,1-3.02,3.43,32.011,32.011,0,0,1-5.37,2.89,52.788,52.788,0,0,0-11.971,7.68,39.688,39.688,0,0,0-7.639,8.52c-1.111,1.77-1.29,3.2-.841,4.4.591,1.57,2.241,2.77,4.311,3.91,3.36,1.85,12.82,5.51,27.85,6.3q2.79.15,5.849.15h.011q3.045,0,5.84-.15c15.03-.79,24.5-4.45,27.86-6.3C101.5,116.632,103.863,114.422,101.314,110.342Z" fill="#4666b7"/><path d="M34.594,101.822c2.55,4.11.91,7.4.91,7.4s-4.44,5.18-9.39,5.52c-.45-1.2-.27-2.63.84-4.4A39.672,39.672,0,0,1,34.594,101.822Z" fill="#4b3956"/><path d="M66.184,100.372a8.214,8.214,0,0,0,2.57-2.97c-1.58-1.68-3.28-3.58-4.62-3.58h-.021c-1.349,0-3.049,1.9-4.619,3.58a8.108,8.108,0,0,0,2.57,2.97c-2.08,6.23-3.79,19.02-3.79,24.57v.01q2.79.15,5.849.15h.011q3.045,0,5.84-.15C69.974,119.4,68.254,106.6,66.184,100.372Z" fill="#584360"/><path d="M66.184,100.372a3.755,3.755,0,0,1-2.05.66h-.02a3.755,3.755,0,0,1-2.05-.66,8.118,8.118,0,0,1-2.57-2.97c1.57-1.68,3.27-3.58,4.62-3.58h.02c1.34,0,3.04,1.9,4.62,3.58A8.214,8.214,0,0,1,66.184,100.372Z" fill="#4b3956"/><path d="M64.134,101.032a3.755,3.755,0,0,0,2.05-.66c2.07,6.23,3.79,19.03,3.79,24.58-1.86.1-3.81.15-5.84.15h-.01q-3.06,0-5.85-.15v-.01c0-5.55,1.71-18.34,3.79-24.57a3.755,3.755,0,0,0,2.05.66Z" fill="#4b3956"/><path d="M73.294,87.812c-1.44,2.57-5.82,4.6-9.16,4.6h-.021c-3.349,0-7.709-2-9.149-4.58l-.01-.01a8.763,8.763,0,0,0,.76-2.2,11.664,11.664,0,0,0,.27-2.15c.31.13,15.98.13,16.29,0a12.29,12.29,0,0,0,.24,2.02A9.58,9.58,0,0,0,73.294,87.812Z" fill="#ff7364"/><path d="M40.364,65.382c-3.52,1.46-7.62-1.53-8.77-5.65s-.16-8.44,2.71-9.78a9.225,9.225,0,0,1,4.16-.88A26.071,26.071,0,0,1,40.364,65.382Z" fill="#ff7364"/><path d="M89.794,49.052a4.827,4.827,0,0,1,4.16.89c2.88,1.34,3.88,5.66,2.71,9.79-1.15,4.12-5.25,7.11-8.77,5.65C85.214,61.352,87.307,51.04,89.794,49.052Z" fill="#ff7364"/><path d="M67.664,6.992V7c-.42-.11-6.6-.13-7-.02a3.519,3.519,0,1,1,7,.01Z" fill="#4b3956"/><path d="M90.134,113.752v3.64a1.018,1.018,0,0,1-.77.99l-7.47,1.92a1.057,1.057,0,0,1-.5,0l-7.47-1.92a1.007,1.007,0,0,1-.77-.99v-3.64a1.026,1.026,0,0,1,1.02-1.03h14.94A1.026,1.026,0,0,1,90.134,113.752Z" fill="#5981d1"/><path d="M55.164,113.752v3.64a1.018,1.018,0,0,1-.77.99l-7.47,1.92a1.1,1.1,0,0,1-.51,0l-7.47-1.92a1.018,1.018,0,0,1-.77-.99v-3.64a1.029,1.029,0,0,1,1.03-1.03h14.93A1.029,1.029,0,0,1,55.164,113.752Z" fill="#5981d1"/><path d="M72.514,85.492a15.988,15.988,0,0,1-16.8.13,11.664,11.664,0,0,0,.27-2.15c.31.13,15.98.13,16.29,0A12.29,12.29,0,0,0,72.514,85.492Z" fill="#ed4850"/><path d="M64.134,91.742c3.34,0,7.72-1.36,9.16-3.93a9.272,9.272,0,0,0,3.01,3.43l-.01.01c.16,2.72-1.5,6.14-2.34,7.54a2.127,2.127,0,0,1-2,1.11c-.86-.07-2-1.22-3.2-2.5-1.58-1.68-3.28-3.58-4.62-3.58h-.02c-1.35,0-3.05,1.9-4.62,3.58-1.21,1.28-2.34,2.43-3.2,2.5a2.142,2.142,0,0,1-2.01-1.11c-.84-1.4-2.5-4.81-2.34-7.53l-.01-.01a9.143,9.143,0,0,0,3.02-3.43l.01.01c1.44,2.58,5.8,3.91,9.15,3.91Z" fill="#5981d1"/><path d="M64.164,40.227c-10.591,0-22.763,5.725-25.7,8.845.09,3.29.31,6.48.6,9.17.21,1.93,1.09,6.41,1.3,7.14a27.937,27.937,0,0,0,15.621,18.09c.31.13.609.25.92.37a21.1,21.1,0,0,0,7.23,1.53,21,21,0,0,0,7.22-1.53c.31-.12.61-.24.92-.37a27.939,27.939,0,0,0,15.62-18.09c.21-.73,1.09-5.21,1.31-7.14.29-2.69.5-5.89.59-9.19C87.214,45.952,74.714,40.227,64.164,40.227Z" fill="#ff977b"/><path d="M67.664,7c16.32,4.26,29.32,11.58,26.71,38.89-4-4.59-56.53-4.54-60.48.06-2.64-27.4,10.41-34.7,26.77-38.97.4-.11.8-.21,1.21-.31a9.064,9.064,0,0,1,4.51,0C66.814,6.782,67.244,6.892,67.664,7Z" fill="#4b3956"/><path d="M64.162,28.142h0a5.307,5.307,0,0,1-5.307-5.307V19.3a14.472,14.472,0,0,1,10.613,0v3.538A5.307,5.307,0,0,1,64.162,28.142Z" fill="#f7f0df"/><path d="M51.288,61.917c-2.8.206-6.1.017-7.923-3.2a10.3,10.3,0,0,1-.583-9.144c2.355-4.736,10.323-3.451,12.441-3.243,3.169.31,7.085,2.425,6.478,5.988C61.127,55.686,56.852,61.509,51.288,61.917Z" fill="#4b3956"/><path d="M76.972,61.917c2.8.206,6.1.017,7.924-3.2a10.308,10.308,0,0,0,.583-9.144c-2.355-4.736-10.323-3.451-12.441-3.243-3.17.31-7.085,2.425-6.479,5.988C67.133,55.686,71.408,61.509,76.972,61.917Z" fill="#4b3956"/><path d="M94.374,45.892a4.753,4.753,0,0,1,1.41,2.86c0,.94-.65,1.26-1.83,1.19a21.351,21.351,0,0,1-4.16-.89c-5.74-1.63-15.08-4.9-25.63-4.9-10.59,0-19.96,3.3-25.7,4.92a20.458,20.458,0,0,1-4.16.87c-1.15.06-1.77-.27-1.77-1.19a4.634,4.634,0,0,1,1.36-2.79v-.01c3.95-4.6,16-10.65,30.27-10.65C78.364,35.3,90.374,41.3,94.374,45.892Z" fill="#5c4666"/><path d="M86.374,49.124c-2.495-5.02-10.054-4.17-12.9-3.851l-.533.058a9.546,9.546,0,0,0-6.376,3.183,5.26,5.26,0,0,0-.64,1.117,6.477,6.477,0,0,0-3.586.005,5.284,5.284,0,0,0-.642-1.122,9.544,9.544,0,0,0-6.375-3.183l-.533-.058c-2.847-.319-10.4-1.169-12.9,3.851A11.366,11.366,0,0,0,42.5,59.206c1.76,3.112,4.676,3.769,7.356,3.769.516,0,1.023-.025,1.511-.06,5.9-.434,10.649-6.468,11.324-10.432a5.131,5.131,0,0,0,.062-.887,4.514,4.514,0,0,1,2.764-.006,5.1,5.1,0,0,0,.062.893c.675,3.964,5.423,10,11.325,10.432.488.035,1,.06,1.51.06,2.681,0,5.6-.657,7.357-3.769A11.372,11.372,0,0,0,86.374,49.124ZM60.716,52.147c-.474,2.776-4.255,8.387-9.5,8.773-2.593.192-5.444.018-6.981-2.7a9.264,9.264,0,0,1-.558-8.206c1.225-2.463,4.448-3,7.222-3a32.3,32.3,0,0,1,3.665.247l.562.061a7.552,7.552,0,0,1,4.981,2.406A2.982,2.982,0,0,1,60.716,52.147Zm23.31,6.074c-1.538,2.717-4.391,2.889-6.98,2.7-5.246-.386-9.028-6-9.5-8.773a2.977,2.977,0,0,1,.608-2.419,7.554,7.554,0,0,1,4.982-2.406l.562-.061c2.464-.279,9.013-1.014,10.886,2.754A9.267,9.267,0,0,1,84.026,58.221Z" fill="#473049"/><path d="M64.134,60.752c.029,0,2.94-.073,2.94-1.69a1,1,0,0,0-1.848-.53,2.838,2.838,0,0,1-2.2,0,1,1,0,0,0-1.847.532C61.183,60.679,64.1,60.752,64.134,60.752Z" fill="#473049"/><path d="M102.16,109.81c-1.073-1.708-7.085-10.537-20.044-16.574l-.391-.182a28.354,28.354,0,0,1-4.839-2.624,8.313,8.313,0,0,1-2.656-2.992c-.013-.032-.032-.058-.048-.089a9.264,9.264,0,0,1-.855-3.261A28.788,28.788,0,0,0,88.546,66.619a5.937,5.937,0,0,0,1.235.136,6.786,6.786,0,0,0,2.963-.709,9.747,9.747,0,0,0,4.882-6.041c1.088-3.843.444-7.536-1.5-9.653.008-.008.02-.013.029-.021a2.084,2.084,0,0,0,.625-1.579A5.313,5.313,0,0,0,95.4,45.588c2.35-25.9-8.982-34.579-26.812-39.371a4.438,4.438,0,0,0-8.85-.021c-17.9,4.812-29.275,13.517-26.871,39.457a5.191,5.191,0,0,0-1.334,3.1,2.221,2.221,0,0,0,.631,1.57c-1.946,2.121-2.6,5.866-1.534,9.679a9.744,9.744,0,0,0,4.882,6.045,6.79,6.79,0,0,0,2.963.709,6,6,0,0,0,1.235-.135,28.78,28.78,0,0,0,15.22,17.459,9.139,9.139,0,0,1-.874,3.3,8.168,8.168,0,0,1-2.715,3.065,27.792,27.792,0,0,1-4.716,2.565l-.487.227a53.661,53.661,0,0,0-12.2,7.827,39.861,39.861,0,0,0-7.835,8.747c-1.209,1.927-1.521,3.7-.93,5.283.009.024.023.044.032.068l.015.03c.787,1.958,2.819,3.291,4.717,4.336,4.573,2.518,14.723,5.711,28.278,6.423,1.867.1,3.853.151,5.915.151,2.044,0,4.028-.05,5.892-.151,13.566-.713,23.718-3.906,28.29-6.423,2.1-1.158,4.332-2.644,4.917-4.9A6.065,6.065,0,0,0,102.16,109.81ZM64.134,90.742l-.01,0-.01,0c-2.947,0-6.613-1.122-8.031-3.02a10.923,10.923,0,0,0,.779-2.839,21.613,21.613,0,0,0,7.272,1.489A21.835,21.835,0,0,0,71.4,84.883a11.088,11.088,0,0,0,.772,2.828C70.735,89.617,67.071,90.742,64.134,90.742ZM38.194,48.11a20.712,20.712,0,0,1-3.891.832c-.068,0-.131,0-.25.01a1.957,1.957,0,0,1-.5-.054h0a.513.513,0,0,1-.016-.147,3.872,3.872,0,0,1,1.116-2.136.807.807,0,0,0,.068-.089C38.464,42.255,50,36.3,64.164,36.3c14,0,25.466,5.851,29.31,10.094a.976.976,0,0,0,.317.361,3.469,3.469,0,0,1,.993,1.994c0,.073-.008.115-.005.126a1.626,1.626,0,0,1-.776.065,21.321,21.321,0,0,1-3.936-.852c-.774-.22-1.614-.47-2.514-.738-5.961-1.773-14.124-4.2-23.389-4.2-9.24,0-17.392,2.422-23.344,4.19C39.877,47.622,39,47.883,38.194,48.11ZM95.7,59.463a7.692,7.692,0,0,1-3.831,4.784,4.573,4.573,0,0,1-2.771.444c.116-.452.243-.9.341-1.353.255-1.152.485-2.658.726-4.715a3.2,3.2,0,0,1,2.576-1.584,1,1,0,0,0,.178-1.992,4.576,4.576,0,0,0-2.477.633c.135-1.7.237-3.494.305-5.332a17.883,17.883,0,0,0,2.878.564C95.875,52.048,96.769,55.69,95.7,59.463ZM64.164,4.1a2.536,2.536,0,0,1,2.179,1.546,10.079,10.079,0,0,0-4.366-.012A2.506,2.506,0,0,1,64.164,4.1ZM60.929,7.947c.39-.108.782-.206,1.194-.306a8.083,8.083,0,0,1,4.011,0l1.277.329c17.317,4.52,27.774,12.159,26.137,35.739C88.486,39.388,77.354,34.3,64.164,34.3c-13.271,0-24.4,5.108-29.448,9.453C33.062,20.139,43.549,12.483,60.929,7.947Zm-24.542,56.3a7.688,7.688,0,0,1-3.831-4.785c-1.034-3.688-.172-7.344,2.06-8.548a17.233,17.233,0,0,0,2.894-.548c.068,1.8.172,3.593.311,5.313a4.558,4.558,0,0,0-2.473-.632,1,1,0,0,0,.176,1.992A3.208,3.208,0,0,1,38.1,58.623a47.109,47.109,0,0,0,.715,4.712c.1.454.226.9.343,1.356A4.56,4.56,0,0,1,36.387,64.247Zm4.938.859c-.207-.721-.394-1.46-.555-2.2a47.32,47.32,0,0,1-.713-4.772c-.277-2.58-.469-5.441-.565-8.319.6-.174,1.227-.358,1.9-.557,5.834-1.733,13.826-4.107,22.775-4.107,8.974,0,16.976,2.38,22.819,4.118.627.187,1.214.36,1.783.526-.1,2.956-.286,5.827-.555,8.333-.241,2.1-.477,3.659-.725,4.78-.16.737-.347,1.476-.553,2.193A26.775,26.775,0,0,1,71.886,82.55c-.3.127-.591.243-.886.357a20.143,20.143,0,0,1-6.866,1.465,20.247,20.247,0,0,1-6.87-1.462c-.26-.1-.514-.2-.773-.31a.965.965,0,0,0-.116-.058A26.768,26.768,0,0,1,41.325,65.106Zm13.73,24.46c2.084,2.088,5.887,3.176,9.059,3.176l.01,0,.01,0c3.165,0,6.968-1.092,9.06-3.187a10.547,10.547,0,0,0,2.093,2.153,15.545,15.545,0,0,1-2.2,6.576,1.151,1.151,0,0,1-1.057.622c-.543-.044-2-1.6-2.553-2.189l-.271-.289c-1.74-1.854-3.381-3.605-5.077-3.605h-.02c-1.719,0-3.369,1.771-5.116,3.645l-.231.247c-.659.7-2.03,2.148-2.545,2.19a1.159,1.159,0,0,1-1.081-.627A15.224,15.224,0,0,1,52.95,91.72,10.389,10.389,0,0,0,55.055,89.566Zm10.579,9.97a2.734,2.734,0,0,1-1.5.5l-.01,0-.01,0a2.752,2.752,0,0,1-1.506-.5,6.8,6.8,0,0,1-1.878-1.99c1.105-1.181,2.6-2.721,3.384-2.721l.01,0,.01,0c.773,0,2.279,1.549,3.379,2.719A6.764,6.764,0,0,1,65.634,99.536ZM27.8,110.871a37.236,37.236,0,0,1,6.507-7.463,6.747,6.747,0,0,1,.344,5.266c-.594.656-3.989,4.237-7.762,4.957A4.813,4.813,0,0,1,27.8,110.871Zm-.058,4.612c4.613-1.122,8.345-5.407,8.518-5.61a.955.955,0,0,0,.136-.2,8.7,8.7,0,0,0-.515-7.6,51.847,51.847,0,0,1,11.1-7.024l.482-.225c1.2-.559,2.426-1.138,3.577-1.811A19.538,19.538,0,0,0,53.423,99.3a3.128,3.128,0,0,0,2.72,1.607c.077,0,.155,0,.232-.008.946-.077,1.866-.8,2.949-1.886a9.076,9.076,0,0,0,1.582,1.716,111.362,111.362,0,0,0-3.614,23.155c-16.718-1.046-25.432-5.583-26.386-6.108A12.074,12.074,0,0,1,27.744,115.483ZM59.29,124a110.169,110.169,0,0,1,3.384-22.223,4.4,4.4,0,0,0,1.44.257h.02a4.414,4.414,0,0,0,1.437-.256A110.761,110.761,0,0,1,68.957,124C65.849,124.133,62.4,124.133,59.29,124Zm42.008-9.869c-.314,1.206-1.5,2.3-3.947,3.647-.953.525-9.668,5.062-26.4,6.108a112.061,112.061,0,0,0-3.608-23.132,8.977,8.977,0,0,0,1.579-1.731,5.347,5.347,0,0,0,2.957,1.879c.075,0,.15.007.224.007a3.119,3.119,0,0,0,2.7-1.6A19.571,19.571,0,0,0,77.192,93c1.188.695,2.452,1.29,3.691,1.865l.389.181c12.448,5.8,18.173,14.2,19.194,15.824A4.223,4.223,0,0,1,101.3,114.129Z" fill="#473049"/><path d="M89.114,111.722H74.174a2.027,2.027,0,0,0-2.02,2.03v3.64a2,2,0,0,0,1.521,1.958l7.476,1.923a2.076,2.076,0,0,0,.991,0l7.466-1.919a2.011,2.011,0,0,0,1.526-1.96v-3.64A2.028,2.028,0,0,0,89.114,111.722Zm.011,5.689-.01,0-7.473,1.921-7.488-1.942.02-3.67,14.96.03Z" fill="#473049"/><path d="M54.134,111.722H39.2a2.033,2.033,0,0,0-2.03,2.03v3.64a2.01,2.01,0,0,0,1.527,1.96l7.483,1.924a2.1,2.1,0,0,0,.48.056,2.2,2.2,0,0,0,.509-.061l7.458-1.917a2.012,2.012,0,0,0,1.533-1.962v-3.64A2.033,2.033,0,0,0,54.134,111.722Zm.01,5.691-7.481,1.921-7.47-1.921-.019-.021.03-3.67,14.96.03Z" fill="#473049"/><path d="M60.338,70.426a33.147,33.147,0,0,1,7.582,0,1.107,1.107,0,0,0,.115.006,1,1,0,0,0,.113-1.993,35.086,35.086,0,0,0-8.039,0,1,1,0,0,0,.229,1.987Z" fill="#473049"/><path d="M64.162,29.142a6.314,6.314,0,0,0,6.306-6.307V19.3a1,1,0,0,0-.647-.936,15.5,15.5,0,0,0-11.323,0,1,1,0,0,0-.643.934v3.538A6.314,6.314,0,0,0,64.162,29.142ZM59.855,20a13.246,13.246,0,0,1,8.613,0v2.831a4.307,4.307,0,1,1-8.613,0Z" fill="#473049"/></svg>